HIERARCHY
ROOT Hips
{
  OFFSET 3.13124 94.3669 -3.18751
  CHANNELS  6 Xposition Yposition Zposition Zrotation Xrotation Yrotation
  JOINT LeftUpLeg
  {
    OFFSET 8.64259 1.95398 -2.38835
    CHANNELS 3 Zrotation Xrotation Yrotation
    JOINT LeftLeg
    {
      OFFSET 43.7702 0 0
      CHANNELS 3 Zrotation Xrotation Yrotation
      JOINT LeftFoot
      {
        OFFSET 40.6238 0 0
        CHANNELS 3 Zrotation Xrotation Yrotation
        JOINT LeftToeBase
        {
          OFFSET 12.7242 0 0
          CHANNELS 3 Zrotation Xrotation Yrotation
          End Site
          {
            OFFSET 0 0 0
          }
        }
      }
    }
  }
  JOINT RightUpLeg
  {
    OFFSET -8.2249 1.95398 -2.59336
    CHANNELS 3 Zrotation Xrotation Yrotation
    JOINT RightLeg
    {
      OFFSET 43.5653 0 0
      CHANNELS 3 Zrotation Xrotation Yrotation
      JOINT RightFoot
      {
        OFFSET 40.6238 0 0
        CHANNELS 3 Zrotation Xrotation Yrotation
        JOINT RightToeBase
        {
          OFFSET 12.7242 0 0
          CHANNELS 3 Zrotation Xrotation Yrotation
          End Site
          {
            OFFSET 0 0 0
          }
        }
      }
    }
  }
  JOINT Spine
  {
    OFFSET 0.165834 0.87714 6.61349
    CHANNELS 3 Zrotation Xrotation Yrotation
    JOINT Spine1
    {
      OFFSET 7.38962 1.71661e-005 0
      CHANNELS 3 Zrotation Xrotation Yrotation
      JOINT Spine2
      {
        OFFSET 11.9445 1.14441e-005 0
        CHANNELS 3 Zrotation Xrotation Yrotation
        JOINT Spine3
        {
          OFFSET 14.7254 4.19617e-005 0
          CHANNELS 3 Zrotation Xrotation Yrotation
          JOINT Spine4
          {
            OFFSET 10.9679 0 0
            CHANNELS 3 Zrotation Xrotation Yrotation
            JOINT RightShoulder
            {
              OFFSET 2.46616 -1.6653 3.69651
              CHANNELS 3 Zrotation Xrotation Yrotation
              JOINT RightArm
              {
                OFFSET 13.0012 0 0
                CHANNELS 3 Zrotation Xrotation Yrotation
                JOINT RightForeArm
                {
                  OFFSET 28.7848 1.52588e-005 0
                  CHANNELS 3 Zrotation Xrotation Yrotation
                  JOINT RightHand
                  {
                    OFFSET 26.5688 1.52588e-005 0
                    CHANNELS 3 Zrotation Xrotation Yrotation
                    End Site
                    {
                      OFFSET 0 0 0
                    }
                  }
                }
              }
            }
            JOINT LeftShoulder
            {
              OFFSET 2.38034 -1.29275 -3.75231
              CHANNELS 3 Zrotation Xrotation Yrotation
              JOINT LeftArm
              {
                OFFSET 16.3182 6.10352e-005 0
                CHANNELS 3 Zrotation Xrotation Yrotation
                JOINT LeftForeArm
                {
                  OFFSET 27.0901 0 0
                  CHANNELS 3 Zrotation Xrotation Yrotation
                  JOINT LeftHand
                  {
                    OFFSET 24.5451 1.52588e-005 0
                    CHANNELS 3 Zrotation Xrotation Yrotation
                    End Site
                    {
                      OFFSET 0 0 0
                    }
                  }
                }
              }
            }
            JOINT Neck
            {
              OFFSET 5.0226 -0.0266342 0
              CHANNELS 3 Zrotation Xrotation Yrotation
              JOINT Head
              {
                OFFSET 6.69363 2.86102e-005 0
                CHANNELS 3 Zrotation Xrotation Yrotation
                End Site
                {
                  OFFSET 0 0 0
                }
              }
            }
          }
        }
      }
    }
  }
}
MOTION
Frames:	13
Frame Time:	0.0333333
82.5721 91.9574 44.6424 165.372 -79.8915 160.725 -173.66 -0.962227 79.1355 -25.7945 -14.176 -2.1904 62.5349 8.04929 4.49254 28.7808 6.4672e-006 1.49858e-005 174.885 0.346315 64.9259 -37.341 -7.86603 -0.664835 33.7483 -14.8035 -13.7896 28.7808 1.66687e-005 2.33713e-005 1.20041 7.03528 -88.9896 12.8547 1.69302 -1.05828 1.18433 1.64482 -1.13177 -21.3587 1.93272 -0.500366 -1.3461 1.9327 -0.500403 81.8356 -54.868 -111.443 16.3688 20.9254 6.43781 12.5936 20.4739 -41.5794 8.11467 2.20747 23.567 -102.792 -67.7456 66.2474 -14.1167 -18.9813 9.90363 -12.7918 -20.1852 -40.3979 11.6589 2.02835 12.7184 -10.6724 24.2434 8.04732 19.2356 23.1039 -2.72264 
82.2886 91.9394 44.5349 176.37 -80.2363 172.071 -173.652 -0.664925 79.4292 -26.1215 -16.808 -2.46122 62.6278 6.62657 3.68497 28.7808 6.4672e-006 1.49858e-005 174.83 0.0864881 65.7942 -35.7304 -0.788655 -0.283596 33.8183 -18.0481 -17.005 28.7808 1.66687e-005 2.33713e-005 1.16069 7.07046 -89.0068 12.7842 1.61708 -1.12886 1.11369 1.56581 -1.19894 -21.4281 1.88272 -0.590559 -1.41551 1.88269 -0.590579 81.6525 -55.1177 -111.62 15.855 21.1247 5.7503 12.9754 21.8026 -40.6221 7.27891 1.96493 23.188 -103.139 -67.2851 65.6798 -13.7768 -19.2909 9.30671 -13.6938 -20.46 -41.7526 11.3641 1.88418 11.9137 -10.3603 24.9823 7.78972 18.7674 24.0441 -1.47215 
81.9454 92.0726 44.3898 -172.197 -80.2703 -175.986 -173.358 -0.755627 80.0659 -25.5208 -18.3363 -2.77412 62.4927 6.92657 3.88651 28.7808 6.4672e-006 1.49858e-005 174.286 -0.953319 66.725 -32.4522 5.31898 0.0734312 36.68 -20.4216 -18.5671 28.7808 1.66687e-005 2.33713e-005 1.1396 7.104 -89.0958 12.7155 1.5682 -1.27959 1.04486 1.51037 -1.34736 -21.4958 1.8804 -0.749028 -1.48312 1.88037 -0.749065 81.681 -55.1825 -111.558 15.1455 21.46 5.54064 12.9971 22.3581 -40.0057 7.78101 2.11541 23.4632 -104.159 -66.9956 64.3413 -13.4093 -19.6169 7.60694 -13.2368 -19.8636 -41.7194 11.6729 2.16441 13.7995 -10.5207 25.5739 8.42608 18.9981 24.7465 -0.607907 
81.608 92.1375 44.2054 -160.21 -80.1659 -163.766 -173.415 -0.41564 80.249 -25.0582 -20.1273 -2.90583 62.4071 6.53534 3.68592 28.7808 6.4672e-006 1.49858e-005 174.144 -0.815806 67.1729 -30.791 10.0494 0.342294 39.722 -20.5192 -17.6932 28.7808 1.66687e-005 2.33713e-005 1.09795 7.11098 -89.165 12.6997 1.53663 -1.32268 1.02895 1.4769 -1.38903 -21.5111 1.86303 -0.799626 -1.49846 1.86301 -0.799671 81.5942 -55.3323 -111.631 14.5966 21.6757 5.0383 12.988 23.1402 -39.1033 7.74688 2.12527 23.7346 -104.611 -66.5653 63.6474 -13.1015 -19.9543 6.92649 -13.2155 -19.0209 -42.9138 10.9031 2.22291 15.2147 -10.3049 26.3125 8.54924 18.7973 25.6458 0.580553 
81.2187 92.2499 43.9866 -150.158 -79.5739 -153.322 -173.393 -0.368652 80.6869 -24.3422 -21.8406 -3.01606 62.3275 6.23456 3.5348 28.7808 6.4672e-006 1.49858e-005 173.857 -1.19818 67.8583 -28.4438 15.3884 0.657765 42.771 -19.9322 -16.3445 28.7808 1.66687e-005 2.33713e-005 1.05464 7.14075 -89.2642 12.6386 1.48066 -1.40694 0.967635 1.41728 -1.47073 -21.5714 1.83575 -0.89685 -1.55872 1.83573 -0.896867 81.461 -55.4033 -111.793 13.9745 21.9365 4.62758 13.0846 23.9813 -38.3635 7.53781 2.12757 24.4481 -105.025 -66.3221 63.0586 -12.7375 -20.3003 6.58252 -13.1489 -18.3072 -43.8864 9.13638 1.7884 14.0953 -10.0977 27.0533 8.84423 18.624 26.5246 1.7344 
80.8091 92.3819 43.7071 -140.169 -78.956 -143.079 -173.565 -0.08827 80.9322 -23.2479 -23.676 -3.05968 62.0954 5.9569 3.40393 28.7808 6.4672e-006 1.49858e-005 173.51 -1.32909 68.4561 -25.6106 20.4087 0.970692 45.7028 -18.7055 -14.5733 28.7808 1.66687e-005 2.33713e-005 1.016 7.14226 -89.3828 12.6329 1.46588 -1.46105 0.961846 1.40017 -1.52414 -21.5766 1.83732 -0.952925 -1.56397 1.83732 -0.952956 81.5216 -55.4202 -111.702 13.5994 22.0815 4.37577 12.9105 24.2846 -37.7438 7.32457 2.07563 24.5146 -105.679 -66.1217 62.1883 -12.3928 -20.7047 6.10674 -13.3475 -17.5653 -45.481 7.74646 1.70635 15.714 -9.83413 27.7539 9.32038 18.5152 27.3175 2.74349 
80.3633 92.5085 43.335 -130.945 -78.128 -133.674 -173.846 0.2685 81.0766 -21.8528 -25.6842 -2.96351 61.8283 5.66323 3.2642 28.7808 6.4672e-006 1.49858e-005 173.316 -0.956517 69.0448 -23.3593 24.2024 1.23828 47.2757 -17.6912 -13.3948 28.7808 1.66687e-005 2.33713e-005 0.9772 7.13874 -89.4823 12.6381 1.45611 -1.4821 0.967059 1.38959 -1.54477 -21.5712 1.83329 -0.975775 -1.55856 1.83328 -0.975801 81.6222 -55.4902 -111.537 13.6534 21.9542 4.12126 12.4642 24.3763 -36.861 6.64739 1.75415 22.3502 -106.021 -65.9734 61.7173 -12.6115 -20.6771 5.08636 -11.7743 -15.8417 -45.2842 6.67797 1.53724 15.975 -9.1742 28.4949 9.48785 18.101 28.1377 3.88505 
79.7815 92.5947 42.9849 -124.501 -76.5749 -126.78 -173.841 0.296662 81.671 -21.0258 -27.4668 -2.88415 61.955 5.34146 3.08933 28.7808 6.4672e-006 1.49858e-005 173.527 -0.501856 69.8777 -22.4967 25.8879 1.37751 46.9372 -18.1166 -13.8064 28.7808 1.66687e-005 2.33713e-005 0.986181 7.19965 -89.556 12.5165 1.48839 -1.57311 0.845344 1.41769 -1.63713 -21.6927 1.89233 -1.05289 -1.68002 1.89232 -1.05293 81.6631 -55.5251 -111.469 13.4396 22.0732 4.31478 12.69 24.5878 -37.0461 7.02575 1.80014 21.7271 -106.406 -65.7781 61.1773 -12.9432 -20.5454 4.24257 -10.1625 -14.036 -45.1913 5.49194 1.32412 15.9964 -8.32917 29.1898 9.25927 17.4236 28.9485 5.35704 
79.2489 92.8067 42.5602 -118.59 -75.1592 -120.578 -174.206 0.172135 82.009 -18.9869 -29.605 -2.66819 61.5602 5.03446 2.93813 28.7808 6.4672e-006 1.49858e-005 172.707 -1.51858 70.5534 -17.4931 29.7838 1.86571 50.349 -15.3101 -10.9374 28.7808 1.66687e-005 2.33713e-005 0.972461 7.22889 -89.7696 12.4538 1.50775 -1.65491 0.782586 1.43346 -1.71908 -21.755 1.93517 -1.1275 -1.74237 1.93517 -1.1275 82.0774 -55.2959 -110.96 13.5215 22.0407 4.15357 12.7698 24.7045 -37.069 6.63533 1.66414 21.1007 -107.522 -65.9258 59.8629 -13.2292 -20.4279 3.4931 -8.5888 -12.3066 -45.0753 4.17154 1.0945 16.1079 -8.10551 29.6465 10.3134 17.5186 29.4043 6.09285 
78.6218 92.9318 42.0614 -113.822 -73.9439 -115.569 -174.405 0.401385 82.4505 -17.4275 -31.0528 -2.39012 61.4785 4.88803 2.86363 28.7808 6.4672e-006 1.49858e-005 172.793 -1.00888 71.3792 -16.0332 31.483 2.08536 50.4758 -14.7624 -10.5048 28.7808 1.66687e-005 2.33713e-005 0.912709 7.25422 -89.8729 12.3987 1.42847 -1.65794 0.727405 1.35414 -1.71932 -21.8094 1.8607 -1.15206 -1.79671 1.86069 -1.15208 81.9702 -55.4622 -111.058 13.3989 22.1315 4.0642 12.5228 24.2624 -37.0813 7.01001 1.72082 20.655 -107.915 -65.8168 59.3405 -13.346 -20.5181 3.16537 -8.33169 -11.423 -46.617 2.1497 0.827714 18.5543 -6.93909 30.2085 10.0294 16.642 30.0328 7.63101 
77.9827 93.0366 41.5462 -109.811 -72.3563 -111.383 -174.771 0.277292 82.7745 -15.3301 -33.0027 -2.01177 61.4245 4.77009 2.80498 28.7808 6.4672e-006 1.49858e-005 172.877 -0.442481 72.1513 -14.6126 32.7282 2.25595 50.9683 -14.0965 -9.92935 28.7808 1.66687e-005 2.33713e-005 0.876462 7.29296 -89.9886 12.3172 1.38807 -1.65611 0.645916 1.31383 -1.71544 -21.8905 1.82161 -1.16213 -1.87779 1.82161 -1.16214 81.8055 -55.5832 -111.248 13.4288 22.1075 3.71418 12.031 23.8147 -36.6599 6.83579 1.6275 19.8806 -108.472 -65.7327 58.6289 -13.8748 -20.3046 2.49193 -9.371 -11.9221 -48.1299 1.88931 0.865068 20.7696 -6.05004 30.5823 9.98806 16.0687 30.4528 8.94594 
77.2327 93.1054 40.9661 -106.647 -70.792 -107.986 -175.009 -0.168091 83.2989 -12.6846 -34.4915 -1.58664 61.8308 4.76029 2.79219 28.7808 6.4672e-006 1.49858e-005 173.179 0.317684 73.1284 -13.8712 33.9304 2.39586 51.5922 -13.5163 -9.40818 28.7808 1.66687e-005 2.33713e-005 0.82225 7.32695 -90.1046 12.2443 1.30459 -1.63418 0.572856 1.23162 -1.68978 -21.9628 1.73373 -1.16695 -1.95013 1.73372 -1.16697 81.4364 -55.8047 -111.69 13.3338 22.2008 3.74136 11.4792 22.8206 -36.6991 7.42683 1.73974 19.6475 -109.05 -65.5584 57.8557 -14.6021 -19.8331 2.60309 -8.04412 -10.351 -48.8197 0.419565 0.539786 21.0511 -5.12889 30.821 9.81753 15.5238 30.721 10.0548 
76.4276 93.1908 40.3882 -103.938 -69.244 -104.997 -175.187 -1.03135 83.9844 -9.27061 -36.0209 -1.26457 62.3121 4.88703 2.84654 28.7808 6.4672e-006 1.49858e-005 173.247 0.484528 74.1939 -11.9389 35.0819 2.52929 52.0139 -12.5191 -8.62557 28.7808 1.66687e-005 2.33713e-005 0.685026 7.37558 -90.1464 12.1382 1.10333 -1.3424 0.46699 1.04316 -1.38965 -22.0688 1.45575 -0.948546 -2.05612 1.45571 -0.94858 79.8407 -56.9262 -113.519 13.3191 22.2868 3.21184 11.2014 22.2744 -36.7779 7.8278 1.8162 19.497 -105.746 -64.3966 61.5119 -16.2981 -18.6126 2.94242 -5.16821 -7.35156 -49.7418 -1.28162 0.149439 20.6359 -1.0313 31.5488 6.04775 12.3275 31.4864 12.1058 
